<?xml version="1.0" standalone="no"?><svg t="1764743058175" class="icon" viewBox="0 0 1024 1024" version="1.1" xmlns="http://www.w3.org/2000/svg" p-id="5802" xmlns:xlink="http://www.w3.org/1999/xlink" width="1024" height="1024"><path d="M0 0m269.473684 0l485.052632 0q269.473684 0 269.473684 269.473684l0 485.052632q0 269.473684-269.473684 269.473684l-485.052632 0q-269.473684 0-269.473684-269.473684l0-485.052632q0-269.473684 269.473684-269.473684Z" fill="#FFF5E9" p-id="5803"></path><path d="M875.614316 377.950316l-144.693895 144.734316a40.933053 40.933053 0 0 1-57.936842 0L528.343579 377.950316a40.933053 40.933053 0 0 1 0-57.936842l144.693895-144.707369a40.933053 40.933053 0 0 1 57.936842 0l144.64 144.761263a40.933053 40.933053 0 0 1 0 57.936843z" fill="#FFCE56" p-id="5804"></path><path d="M435.873684 860.672h-204.665263a40.933053 40.933053 0 0 1-40.933053-40.933053v-204.665263a40.933053 40.933053 0 0 1 40.933053-40.933052h204.665263a40.933053 40.933053 0 0 1 40.933053 40.933052v204.665263a40.933053 40.933053 0 0 1-40.933053 40.933053z m0-368.397474h-204.665263a40.933053 40.933053 0 0 1-40.933053-40.933052v-204.665263a40.933053 40.933053 0 0 1 40.933053-40.933053h204.665263a40.933053 40.933053 0 0 1 40.933053 40.933053v204.665263a40.933053 40.933053 0 0 1-40.933053 40.933052z m163.732211 81.866106h204.665263a40.933053 40.933053 0 0 1 40.933053 40.933052v204.665263a40.933053 40.933053 0 0 1-40.933053 40.933053h-204.665263a40.933053 40.933053 0 0 1-40.933053-40.933053v-204.665263a40.933053 40.933053 0 0 1 40.933053-40.933052z" fill="#FFA20C" p-id="5805"></path></svg>