<?xml version="1.0" standalone="no"?><svg t="1745547090422" class="icon" viewBox="0 0 1024 1024" version="1.1" xmlns="http://www.w3.org/2000/svg" p-id="3709" xmlns:xlink="http://www.w3.org/1999/xlink" width="200" height="200"><path d="M0 0m269.473684 0l485.052632 0q269.473684 0 269.473684 269.473684l0 485.052632q0 269.473684-269.473684 269.473684l-485.052632 0q-269.473684 0-269.473684-269.473684l0-485.052632q0-269.473684 269.473684-269.473684Z" fill="#E3FFFC" p-id="3710"></path><path d="M697.586526 815.211789h-371.2a90.718316 90.718316 0 0 1-90.664421-90.664421v-425.094736a90.718316 90.718316 0 0 1 90.664421-90.664421h321.724632l140.126316 138.428631v377.519158a90.718316 90.718316 0 0 1-90.664421 90.489263z" fill="#16D0AF" p-id="3711"></path><path d="M648.151579 208.788211v110.618947a30.625684 30.625684 0 0 0 30.558316 30.558316h109.541052v-2.694737z" fill="#ADF0EA" p-id="3712"></path><path d="M610.56 715.061895H333.514105a22.433684 22.433684 0 0 1 0-44.867369h277.045895a22.433684 22.433684 0 1 1 0 44.867369z m-78.955789-92.119579h-198.063158a22.433684 22.433684 0 1 1 0-44.867369h198.063158a22.433684 22.433684 0 1 1 0 44.867369z" fill="#FFFFFF" p-id="3713"></path><path d="M350.396632 503.444211a109.136842 109.136842 0 0 1-11.762527-8.596211 120.144842 120.144842 0 0 1-11.762526-10.711579 8.690526 8.690526 0 0 1-3.018105-6.03621q0-3.018105 4.217263-5.133474a26.516211 26.516211 0 0 0 9.498947-6.736842 24.454737 24.454737 0 0 0 4.97179-10.105263q3.018105-17.192421 5.389473-40.879158t3.341474-40.29979q0-3.314526-2.411789-3.018105a134.736842 134.736842 0 0 0-22.016 8.448 19.442526 19.442526 0 0 1-8.448 2.411789 10.186105 10.186105 0 0 1-5.133474-1.212631 37.726316 37.726316 0 0 1-8.448-6.642526 66.708211 66.708211 0 0 1-7.841684-9.350737 10.994526 10.994526 0 0 1-2.115369-4.823579q0-3.624421 4.527158-3.920842a161.562947 161.562947 0 0 0 33.024-9.027369 110.942316 110.942316 0 0 0 24.252632-11.762526 12.813474 12.813474 0 0 1 7.841684-2.694737 16.235789 16.235789 0 0 1 5.133474 0.902737 72.097684 72.097684 0 0 1 22.056421 15.952842 11.425684 11.425684 0 0 1 4.527158 7.545263 9.957053 9.957053 0 0 1-2.694737 6.036211 41.997474 41.997474 0 0 0-7.545263 18.095158q-1.212632 6.642526-2.694737 22.325894t-2.694737 28.658527a2.021053 2.021053 0 0 0 0.458105 2.115368q0.754526 0.606316 1.657263-0.606316 18.095158-14.821053 28.658527-25.344a2.896842 2.896842 0 0 1 2.115368-0.902737 1.899789 1.899789 0 0 1 1.967158 1.050948 3.503158 3.503158 0 0 1-0.458105 2.869895q-10.886737 24.427789-22.352842 44.638315t-27.149474 43.11579a12.328421 12.328421 0 0 1-9.647158 5.133473 10.037895 10.037895 0 0 1-5.443368-1.495578z m30.167579-191.541895a8.650105 8.650105 0 0 1-3.920843 0.902737 10.010947 10.010947 0 0 1-8.08421-4.217264 127.568842 127.568842 0 0 1-12.220632-20.816842q-5.578105-11.762526-12.220631-28.294736a4.203789 4.203789 0 0 1-0.296421-1.805474 2.937263 2.937263 0 0 1 3.314526-3.314526q3.314526-0.296421 9.957053-0.296422a57.478737 57.478737 0 0 1 29.561263 6.642527 23.026526 23.026526 0 0 1 11.15621 21.423158 35.880421 35.880421 0 0 1-0.296421 5.389473 34.074947 34.074947 0 0 1-16.949894 24.387369z m47.36 28.658526a17.973895 17.973895 0 0 1-3.920843 0.296421 14.430316 14.430316 0 0 1-9.054315-3.018105q-5.133474-4.823579-7.397053-7.397053a44.934737 44.934737 0 0 1-5.578105-9.498947 8.084211 8.084211 0 0 1-0.902737-3.624421 5.618526 5.618526 0 0 1 1.212631-3.624421 4.042105 4.042105 0 0 1 3.314527-1.509053q31.070316-1.212632 75.722105-6.332631a411.041684 411.041684 0 0 0 69.376-12.665264 25.6 25.6 0 0 1 6.036211-1.212631 12.840421 12.840421 0 0 1 5.726315 1.509052 45.594947 45.594947 0 0 1 10.253474 9.498948 47.157895 47.157895 0 0 1 7.841684 12.517052 18.741895 18.741895 0 0 1 1.509053 6.332632 4.769684 4.769684 0 0 1-2.869895 4.675368 19.590737 19.590737 0 0 1-8.892631 1.050948q-2.694737-0.296421-12.126316-0.296421-18.997895 0-39.518316 1.212631a7.882105 7.882105 0 0 1 2.263579 3.920842 18.620632 18.620632 0 0 1 0.14821 5.389474 357.928421 357.928421 0 0 0-3.920842 57.613474q0 23.228632 1.509053 53.39621l1.037474 22.972632a56.252632 56.252632 0 0 1-7.235369 32.121263 54.501053 54.501053 0 0 1-20.816842 19.456 17.677474 17.677474 0 0 1-7.841684 2.115369 10.846316 10.846316 0 0 1-8.569263-4.217264 507.553684 507.553684 0 0 0-40.124632-40.421052 4.971789 4.971789 0 0 1-2.048-3.664842q0-3.018105 4.823579-2.694737 7.545263 0.902737 15.238737 1.657263t14.632421 1.050947a7.612632 7.612632 0 0 0 8.084211-7.841684 662.608842 662.608842 0 0 0 3.624421-76.921263q0-34.088421-2.115369-60.335158a399.292632 399.292632 0 0 0-49.421473 8.474947z" fill="#FFFFFF" p-id="3714"></path></svg>