<?xml version="1.0" standalone="no"?><svg class="icon" width="200px" height="200.00px" viewBox="0 0 1024 1024" version="1.1" xmlns="http://www.w3.org/2000/svg"><path d="M383.995692 0h255.997129q383.995692 0 383.995692 383.995692v255.997129q0 383.995692-383.995692 383.995692H383.995692Q0 1023.988513 0 639.992821V383.995692Q0 0 383.995692 0z" fill="#FF9D53" /><path d="M792.228751 817.189792l-292.812654-0.068922a9.591564 9.591564 0 0 1-1.068282 0 9.430748 9.430748 0 0 1-9.3848-8.27057v-202.399237a9.442235 9.442235 0 0 1 9.396287-8.282057 9.097627 9.097627 0 0 1 1.056795 0h292.812654a9.063167 9.063167 0 0 1 1.045308 0 9.407774 9.407774 0 0 1 9.373313 8.282057v202.468158a9.407774 9.407774 0 0 1-9.373313 8.282058 9.189523 9.189523 0 0 1-1.045308-0.011487z m-194.840855-56.010141a15.335016 15.335016 0 0 0 15.392451 15.231634h53.988445a55.79189 55.79189 0 0 0 47.85444-54.700634 55.780403 55.780403 0 0 0-47.85444-54.67766h-37.102697l2.377789-1.872365a15.05933 15.05933 0 0 0 1.975747-21.101442 15.449885 15.449885 0 0 0-12.026788-5.686017 15.392451 15.392451 0 0 0-9.269931 3.07849l-30.945718 24.650895a15.139739 15.139739 0 0 0-2.504144 21.239284l26.419877 33.31202a15.289068 15.289068 0 0 0 12.061249 5.812373h0.172303a15.254608 15.254608 0 0 0 9.373313-3.250793 15.093791 15.093791 0 0 0 5.743452-10.154423 14.864053 14.864053 0 0 0-3.170385-11.245678l-3.446071-4.319076h40.204162c9.269931 0 17.081025 11.096349 17.081025 24.248853s-7.811094 24.202905-17.081025 24.202905h-53.988446a15.335016 15.335016 0 0 0-15.277582 15.185687z m-302.105558 4.250154a29.728106 29.728106 0 0 1-27.936149-31.08356V237.81336a29.693645 29.693645 0 0 1 27.936149-31.014639h446.438499a29.693645 29.693645 0 0 1 27.924662 31.014639v203.616849H518.369488a16.001256 16.001256 0 0 0-12.635594 6.283336l-66.279432 92.228347a16.426272 16.426272 0 0 0-2.504145 7.925964 10.028067 10.028067 0 0 0-0.14933 2.010208v215.48282H295.293825z m32.301172-394.333905a20.125055 20.125055 0 0 0 20.205463 19.987212h60.639363a20.125055 20.125055 0 0 0 20.193976-19.987212 20.125055 20.125055 0 0 0-20.193976-19.998699h-60.639363a20.125055 20.125055 0 0 0-20.251411 19.952751z m0-79.937361a20.125055 20.125055 0 0 0 20.205463 19.987212h181.906602a20.125055 20.125055 0 0 0 20.159515-20.056133 20.113568 20.113568 0 0 0-20.228437-19.987212H347.720052a20.113568 20.113568 0 0 0-20.18249 19.987212z m162.689012 271.952437a10.338213 10.338213 0 0 1 0.608806-10.556464l44.695541-62.029278a10.924045 10.924045 0 0 1 8.626665-4.250154h200.572819a10.177396 10.177396 0 0 1 8.121241 4.04339l47.693623 62.144147a10.062527 10.062527 0 0 1 1.056795 10.453082 10.487543 10.487543 0 0 1-9.35034 5.663043H499.048516a9.832789 9.832789 0 0 1-8.821941-5.513713z" fill="#FFFFFF" opacity=".78" /></svg>