<svg t="1781320444152" class="icon" viewBox="0 0 1024 1024" version="1.1" xmlns="http://www.w3.org/2000/svg" p-id="13281" xmlns:xlink="http://www.w3.org/1999/xlink"><path d="M512 146.4c201.2 0.4 364 163.6 363.6 364.8-0.4 201.2-163.6 364-364.8 363.6s-364-163.6-363.6-364.8c0.4-146 88-278 222.4-334.8 45.2-19.2 93.6-28.8 142.4-28.8m0-56.4C278.8 90 90 278.8 90 512S278.8 934 512 934 934 745.2 934 512 745.2 90 512 90z" fill="#7E7E7E" p-id="13282"></path><path d="M674.8 427.2l-138.4-147.6c-5.2-8.4-14.4-13.2-24-13.2h-0.4c-9.6 0-18.8 4.8-24 13.2l-138 147.6c-10.4 11.6-9.6 29.2 2 40 11.2 10.4 28.8 9.6 39.6-1.2L484 366.4v362.8c0 15.6 12.8 28.4 28.4 28.4 15.6 0 28.4-12.8 28.4-28.4V366.4l93.2 99.2c11.2 11.2 28.8 11.2 40 0 10-10.4 10.8-27.2 0.8-38.4z" fill="#3765FF" p-id="13283"></path></svg>
